<?xml version="1.0" encoding="UTF-8" standalone="no"?>
<!DOCTYPE svg PUBLIC "-//W3C//DTD SVG 1.1//EN"
 "http://www.w3.org/Graphics/SVG/1.1/DTD/svg11.dtd">
<!-- Generated by graphviz version 2.40.1 (20161225.0304)
 -->
<!-- Title: dependencies Pages: 1 -->
<svg width="635pt" height="211pt"
 viewBox="0.00 0.00 635.00 211.00" xmlns="http://www.w3.org/2000/svg" xmlns:xlink="http://www.w3.org/1999/xlink">
<g id="graph0" class="graph" transform="scale(1 1) rotate(0) translate(4 207)">
<title>dependencies</title>
<polygon fill="#ffffff" stroke="transparent" points="-4,4 -4,-207 631,-207 631,4 -4,4"/>
<text text-anchor="start" x="292.5091" y="-42.4" font-family="sans-serif" font-weight="bold" font-size="14.00" fill="#000000">Legend</text>
<polygon fill="#ffffb3" stroke="transparent" points="79.5,-10 79.5,-30 99.5,-30 99.5,-10 79.5,-10"/>
<text text-anchor="start" x="103.129" y="-15.4" font-family="sans-serif" font-size="14.00" fill="#000000"> &#160;Declarations</text>
<polygon fill="#8dd3c7" stroke="transparent" points="192.5,-10 192.5,-30 212.5,-30 212.5,-10 192.5,-10"/>
<text text-anchor="start" x="216.2251" y="-15.4" font-family="sans-serif" font-size="14.00" fill="#000000"> &#160;Module</text>
<polygon fill="#80b1d3" stroke="transparent" points="278.5,-10 278.5,-30 298.5,-30 298.5,-10 278.5,-10"/>
<text text-anchor="start" x="302.2812" y="-15.4" font-family="sans-serif" font-size="14.00" fill="#000000"> &#160;Bootstrap</text>
<polygon fill="#fdb462" stroke="transparent" points="375.5,-10 375.5,-30 395.5,-30 395.5,-10 375.5,-10"/>
<text text-anchor="start" x="399.1732" y="-15.4" font-family="sans-serif" font-size="14.00" fill="#000000"> &#160;Providers</text>
<polygon fill="#fb8072" stroke="transparent" points="471.5,-10 471.5,-30 491.5,-30 491.5,-10 471.5,-10"/>
<text text-anchor="start" x="495.2258" y="-15.4" font-family="sans-serif" font-size="14.00" fill="#000000"> &#160;Exports</text>
<g id="clust1" class="cluster">
<title>cluster_DataModule</title>
<polygon fill="none" stroke="#000000" stroke-dasharray="1,5" points="8,-70 8,-195 619,-195 619,-70 8,-70"/>
</g>
<g id="clust6" class="cluster">
<title>cluster_DataModule_providers</title>
<polygon fill="none" stroke="#000000" points="16,-78 16,-130 611,-130 611,-78 16,-78"/>
</g>
<!-- ElectricityService -->
<g id="node1" class="node">
<title>ElectricityService</title>
<ellipse fill="#fdb462" stroke="#000000" cx="523" cy="-104" rx="80.4267" ry="18"/>
<text text-anchor="middle" x="523" y="-99.8" font-family="Times,serif" font-size="14.00" fill="#000000">ElectricityService</text>
</g>
<!-- DataModule -->
<g id="node5" class="node">
<title>DataModule</title>
<polygon fill="#8dd3c7" stroke="#000000" points="331.9762,-187 328.9762,-191 307.9762,-191 304.9762,-187 246.0238,-187 246.0238,-151 331.9762,-151 331.9762,-187"/>
<text text-anchor="middle" x="289" y="-164.8" font-family="Times,serif" font-size="14.00" fill="#000000">DataModule</text>
</g>
<!-- ElectricityService&#45;&gt;DataModule -->
<g id="edge1" class="edge">
<title>ElectricityService&#45;&gt;DataModule</title>
<path fill="none" stroke="#000000" d="M523,-122.1061C523,-141.3391 523,-169 523,-169 523,-169 342.1919,-169 342.1919,-169"/>
<polygon fill="#000000" stroke="#000000" points="342.1919,-165.5001 332.1919,-169 342.1919,-172.5001 342.1919,-165.5001"/>
</g>
<!-- PlayerService -->
<g id="node2" class="node">
<title>PlayerService</title>
<ellipse fill="#fdb462" stroke="#000000" cx="360" cy="-104" rx="64.8215" ry="18"/>
<text text-anchor="middle" x="360" y="-99.8" font-family="Times,serif" font-size="14.00" fill="#000000">PlayerService</text>
</g>
<!-- PlayerService&#45;&gt;DataModule -->
<g id="edge2" class="edge">
<title>PlayerService&#45;&gt;DataModule</title>
<path fill="none" stroke="#000000" d="M313.6638,-116.8419C313.6638,-116.8419 313.6638,-140.5231 313.6638,-140.5231"/>
<polygon fill="#000000" stroke="#000000" points="310.1639,-140.523 313.6638,-150.5231 317.1639,-140.5231 310.1639,-140.523"/>
</g>
<!-- StateService -->
<g id="node3" class="node">
<title>StateService</title>
<ellipse fill="#fdb462" stroke="#000000" cx="218" cy="-104" rx="59.1026" ry="18"/>
<text text-anchor="middle" x="218" y="-99.8" font-family="Times,serif" font-size="14.00" fill="#000000">StateService</text>
</g>
<!-- StateService&#45;&gt;DataModule -->
<g id="edge3" class="edge">
<title>StateService&#45;&gt;DataModule</title>
<path fill="none" stroke="#000000" d="M261.6564,-116.226C261.6564,-116.226 261.6564,-140.683 261.6564,-140.683"/>
<polygon fill="#000000" stroke="#000000" points="258.1565,-140.683 261.6564,-150.683 265.1565,-140.683 258.1565,-140.683"/>
</g>
<!-- UserService -->
<g id="node4" class="node">
<title>UserService</title>
<ellipse fill="#fdb462" stroke="#000000" cx="82" cy="-104" rx="58.4415" ry="18"/>
<text text-anchor="middle" x="82" y="-99.8" font-family="Times,serif" font-size="14.00" fill="#000000">UserService</text>
</g>
<!-- UserService&#45;&gt;DataModule -->
<g id="edge4" class="edge">
<title>UserService&#45;&gt;DataModule</title>
<path fill="none" stroke="#000000" d="M82,-122.1061C82,-141.3391 82,-169 82,-169 82,-169 235.858,-169 235.858,-169"/>
<polygon fill="#000000" stroke="#000000" points="235.858,-172.5001 245.858,-169 235.858,-165.5001 235.858,-172.5001"/>
</g>
</g>
</svg>
