<?xml version="1.0" encoding="UTF-8" standalone="no"?>
<!DOCTYPE svg PUBLIC "-//W3C//DTD SVG 1.1//EN"
 "http://www.w3.org/Graphics/SVG/1.1/DTD/svg11.dtd">
<!-- Generated by graphviz version 2.40.1 (20161225.0304)
 -->
<!-- Title: dependencies Pages: 1 -->
<svg width="1064pt" height="211pt"
 viewBox="0.00 0.00 1064.00 211.00" xmlns="http://www.w3.org/2000/svg" xmlns:xlink="http://www.w3.org/1999/xlink">
<g id="graph0" class="graph" transform="scale(1 1) rotate(0) translate(4 207)">
<title>dependencies</title>
<polygon fill="#ffffff" stroke="transparent" points="-4,4 -4,-207 1060,-207 1060,4 -4,4"/>
<text text-anchor="start" x="507.0091" y="-42.4" font-family="sans-serif" font-weight="bold" font-size="14.00" fill="#000000">Legend</text>
<polygon fill="#ffffb3" stroke="transparent" points="294,-10 294,-30 314,-30 314,-10 294,-10"/>
<text text-anchor="start" x="317.629" y="-15.4" font-family="sans-serif" font-size="14.00" fill="#000000"> &#160;Declarations</text>
<polygon fill="#8dd3c7" stroke="transparent" points="407,-10 407,-30 427,-30 427,-10 407,-10"/>
<text text-anchor="start" x="430.7251" y="-15.4" font-family="sans-serif" font-size="14.00" fill="#000000"> &#160;Module</text>
<polygon fill="#80b1d3" stroke="transparent" points="493,-10 493,-30 513,-30 513,-10 493,-10"/>
<text text-anchor="start" x="516.7812" y="-15.4" font-family="sans-serif" font-size="14.00" fill="#000000"> &#160;Bootstrap</text>
<polygon fill="#fdb462" stroke="transparent" points="590,-10 590,-30 610,-30 610,-10 590,-10"/>
<text text-anchor="start" x="613.6732" y="-15.4" font-family="sans-serif" font-size="14.00" fill="#000000"> &#160;Providers</text>
<polygon fill="#fb8072" stroke="transparent" points="686,-10 686,-30 706,-30 706,-10 686,-10"/>
<text text-anchor="start" x="709.7258" y="-15.4" font-family="sans-serif" font-size="14.00" fill="#000000"> &#160;Exports</text>
<g id="clust1" class="cluster">
<title>cluster_PagesModule</title>
<polygon fill="none" stroke="#000000" stroke-dasharray="1,5" points="8,-70 8,-195 1048,-195 1048,-70 8,-70"/>
</g>
<g id="clust2" class="cluster">
<title>cluster_PagesModule_declarations</title>
<polygon fill="none" stroke="#000000" points="294,-78 294,-130 1040,-130 1040,-78 294,-78"/>
</g>
<g id="clust8" class="cluster">
<title>cluster_PagesModule_imports</title>
<polygon fill="none" stroke="#000000" points="16,-78 16,-130 286,-130 286,-78 16,-78"/>
</g>
<!-- ConfigComponent -->
<g id="node1" class="node">
<title>ConfigComponent</title>
<polygon fill="#ffffb3" stroke="#000000" points="1032.2204,-122 911.7796,-122 911.7796,-86 1032.2204,-86 1032.2204,-122"/>
<text text-anchor="middle" x="972" y="-99.8" font-family="Times,serif" font-size="14.00" fill="#000000">ConfigComponent</text>
</g>
<!-- PagesModule -->
<g id="node6" class="node">
<title>PagesModule</title>
<polygon fill="#8dd3c7" stroke="#000000" points="582.2064,-187 579.2064,-191 558.2064,-191 555.2064,-187 489.7936,-187 489.7936,-151 582.2064,-151 582.2064,-187"/>
<text text-anchor="middle" x="536" y="-164.8" font-family="Times,serif" font-size="14.00" fill="#000000">PagesModule</text>
</g>
<!-- ConfigComponent&#45;&gt;PagesModule -->
<g id="edge1" class="edge">
<title>ConfigComponent&#45;&gt;PagesModule</title>
<path fill="none" stroke="#000000" d="M972,-122.2921C972,-144.2057 972,-178 972,-178 972,-178 592.2469,-178 592.2469,-178"/>
<polygon fill="#000000" stroke="#000000" points="592.2469,-174.5001 582.2469,-178 592.2468,-181.5001 592.2469,-174.5001"/>
</g>
<!-- DashboardComponent -->
<g id="node2" class="node">
<title>DashboardComponent</title>
<polygon fill="#ffffb3" stroke="#000000" points="893.9734,-122 752.0266,-122 752.0266,-86 893.9734,-86 893.9734,-122"/>
<text text-anchor="middle" x="823" y="-99.8" font-family="Times,serif" font-size="14.00" fill="#000000">DashboardComponent</text>
</g>
<!-- DashboardComponent&#45;&gt;PagesModule -->
<g id="edge2" class="edge">
<title>DashboardComponent&#45;&gt;PagesModule</title>
<path fill="none" stroke="#000000" d="M823,-122.1061C823,-141.3391 823,-169 823,-169 823,-169 592.1115,-169 592.1115,-169"/>
<polygon fill="#000000" stroke="#000000" points="592.1116,-165.5001 582.1115,-169 592.1115,-172.5001 592.1116,-165.5001"/>
</g>
<!-- PagesComponent -->
<g id="node3" class="node">
<title>PagesComponent</title>
<polygon fill="#ffffb3" stroke="#000000" points="733.9888,-122 620.0112,-122 620.0112,-86 733.9888,-86 733.9888,-122"/>
<text text-anchor="middle" x="677" y="-99.8" font-family="Times,serif" font-size="14.00" fill="#000000">PagesComponent</text>
</g>
<!-- PagesComponent&#45;&gt;PagesModule -->
<g id="edge3" class="edge">
<title>PagesComponent&#45;&gt;PagesModule</title>
<path fill="none" stroke="#000000" d="M677,-122.027C677,-138.3976 677,-160 677,-160 677,-160 592.1687,-160 592.1687,-160"/>
<polygon fill="#000000" stroke="#000000" points="592.1687,-156.5001 582.1687,-160 592.1686,-163.5001 592.1687,-156.5001"/>
</g>
<!-- StatisticsComponent -->
<g id="node4" class="node">
<title>StatisticsComponent</title>
<polygon fill="#ffffb3" stroke="#000000" points="601.8864,-122 470.1136,-122 470.1136,-86 601.8864,-86 601.8864,-122"/>
<text text-anchor="middle" x="536" y="-99.8" font-family="Times,serif" font-size="14.00" fill="#000000">StatisticsComponent</text>
</g>
<!-- StatisticsComponent&#45;&gt;PagesModule -->
<g id="edge4" class="edge">
<title>StatisticsComponent&#45;&gt;PagesModule</title>
<path fill="none" stroke="#000000" d="M536,-122.1061C536,-122.1061 536,-140.991 536,-140.991"/>
<polygon fill="#000000" stroke="#000000" points="532.5001,-140.9909 536,-150.991 539.5001,-140.991 532.5001,-140.9909"/>
</g>
<!-- TotalConfigComponent -->
<g id="node5" class="node">
<title>TotalConfigComponent</title>
<polygon fill="#ffffb3" stroke="#000000" points="451.7688,-122 302.2312,-122 302.2312,-86 451.7688,-86 451.7688,-122"/>
<text text-anchor="middle" x="377" y="-99.8" font-family="Times,serif" font-size="14.00" fill="#000000">TotalConfigComponent</text>
</g>
<!-- TotalConfigComponent&#45;&gt;PagesModule -->
<g id="edge5" class="edge">
<title>TotalConfigComponent&#45;&gt;PagesModule</title>
<path fill="none" stroke="#000000" d="M377,-122.027C377,-138.3976 377,-160 377,-160 377,-160 479.5832,-160 479.5832,-160"/>
<polygon fill="#000000" stroke="#000000" points="479.5832,-163.5001 489.5832,-160 479.5832,-156.5001 479.5832,-163.5001"/>
</g>
<!-- PagesRoutingModule -->
<g id="node7" class="node">
<title>PagesRoutingModule</title>
<polygon fill="#8dd3c7" stroke="#000000" points="277.8244,-122 274.8244,-126 253.8244,-126 250.8244,-122 140.1756,-122 140.1756,-86 277.8244,-86 277.8244,-122"/>
<text text-anchor="middle" x="209" y="-99.8" font-family="Times,serif" font-size="14.00" fill="#000000">PagesRoutingModule</text>
</g>
<!-- PagesRoutingModule&#45;&gt;PagesModule -->
<g id="edge6" class="edge">
<title>PagesRoutingModule&#45;&gt;PagesModule</title>
<path fill="none" stroke="#000000" d="M209,-122.1061C209,-141.3391 209,-169 209,-169 209,-169 479.8424,-169 479.8424,-169"/>
<polygon fill="#000000" stroke="#000000" points="479.8425,-172.5001 489.8424,-169 479.8424,-165.5001 479.8425,-172.5001"/>
</g>
<!-- ThemeModule -->
<g id="node8" class="node">
<title>ThemeModule</title>
<polygon fill="#8dd3c7" stroke="#000000" points="122.4231,-122 119.4231,-126 98.4231,-126 95.4231,-122 23.5769,-122 23.5769,-86 122.4231,-86 122.4231,-122"/>
<text text-anchor="middle" x="73" y="-99.8" font-family="Times,serif" font-size="14.00" fill="#000000">ThemeModule</text>
</g>
<!-- ThemeModule&#45;&gt;PagesModule -->
<g id="edge7" class="edge">
<title>ThemeModule&#45;&gt;PagesModule</title>
<path fill="none" stroke="#000000" d="M73,-122.2921C73,-144.2057 73,-178 73,-178 73,-178 479.4859,-178 479.4859,-178"/>
<polygon fill="#000000" stroke="#000000" points="479.4859,-181.5001 489.4859,-178 479.4859,-174.5001 479.4859,-181.5001"/>
</g>
</g>
</svg>
